<?xml version="1.0" encoding="UTF-8" standalone="no"?><!DOCTYPE svg PUBLIC "-//W3C//DTD SVG 1.1//EN" "http://www.w3.org/Graphics/SVG/1.1/DTD/svg11.dtd"><svg width="100%" height="100%" viewBox="0 0 120 120" version="1.1" xmlns="http://www.w3.org/2000/svg" xmlns:xlink="http://www.w3.org/1999/xlink" xml:space="preserve" xmlns:serif="http://www.serif.com/" style="fill-rule:evenodd;clip-rule:evenodd;stroke-linejoin:round;stroke-miterlimit:2;"><g id="Calque1"><path d="M23.449,113.77l-0,-109.105l0.314,-1.09l0.778,-0.719l0.668,-0.36l1.186,0l53.163,-0.083l25.581,24.821l-0.008,86.23l-0.324,0.849l-0.51,0.749l-0.371,0.3l-0.649,0.249l-0.695,0l-76.793,0.069l-0.878,-0.179l-0.522,-0.332l-0.522,-0.563l-0.237,-0.409l-0.181,-0.427Z" style="fill:#528fda;"/></g><g id="Calque2"><path d="M79.363,2.494l26.042,24.902l-23.442,-0.067l-1.401,-0.134l-0.72,-0.644l-0.452,-0.762l-0.185,-1l0.011,-1.678l0.147,-20.617Z" style="fill:#235c9d;"/></g><g id="Calque4"><path d="M80.677,27.193l24.498,0.078l-0.039,11.857l-24.459,-11.935Z" style="fill:#3977bd;"/></g><text x="32.166px" y="88.653px" style="font-family:'FranklinGothic-Medium', 'Franklin Gothic Medium', sans-serif;font-size:32.549px;fill:#fff;">DOC</text></svg>